<svg width="25" height="24" viewBox="0 0 25 24" fill="none" xmlns="http://www.w3.org/2000/svg">
<path d="M16.4065 18.035L16.4067 18.0352C16.8509 18.4793 17.3729 18.8201 17.9414 19.0447L14.761 22.2252C13.7276 23.2586 12.0522 23.2585 11.019 22.2252L11.0189 22.2252L7.92567 19.132C8.57253 18.9116 9.16573 18.5444 9.66205 18.0484L9.66223 18.0482L13.0409 14.6694L16.4065 18.035Z" stroke="white" stroke-width="2"/>
<path d="M17.9413 4.9552C17.3728 5.17988 16.8509 5.52065 16.4066 5.96472L16.4064 5.96493L13.0407 9.3309L9.6622 5.95179L9.66197 5.95155C9.16569 5.45551 8.57254 5.08837 7.92573 4.86794L11.0189 1.7748L11.0189 1.77477C12.0521 0.74146 13.7275 0.741371 14.761 1.77479C14.761 1.7748 14.761 1.77481 14.761 1.77482L17.9413 4.9552ZM12.8057 9.56595C12.806 9.56562 12.8063 9.5653 12.8067 9.56498L12.8057 9.56595ZM13.2752 9.5654L13.2751 9.56531C13.2751 9.56534 13.2751 9.56537 13.2752 9.5654Z" stroke="white" stroke-width="2"/>
<mask id="path-3-inside-1_1_470" fill="white">
<path d="M23.822 9.42191L21.0591 6.65895C20.9982 6.68331 20.9323 6.69852 20.8628 6.69852H19.6066C18.9571 6.69852 18.3213 6.96195 17.8624 7.42121L14.2628 11.0209C13.9259 11.3578 13.4833 11.5263 13.0411 11.5263C12.5984 11.5263 12.1561 11.3578 11.8194 11.0213L8.20615 7.40805C7.74722 6.94869 7.11145 6.68537 6.46198 6.68537H4.91731C4.85142 6.68537 4.78986 6.66984 4.73174 6.64795L1.95779 9.42191C0.533885 10.8458 0.533885 13.1543 1.95779 14.5782L4.73162 17.352C4.78985 17.3301 4.85142 17.3146 4.91731 17.3146H6.46198C7.11145 17.3146 7.74722 17.0513 8.20615 16.592L11.819 12.9792C12.472 12.3267 13.6104 12.3264 14.2628 12.9795L17.8624 16.5789C18.3213 17.0381 18.9571 17.3015 19.6066 17.3015H20.8628C20.9323 17.3015 20.9982 17.3167 21.0591 17.3411L23.822 14.5782C25.2458 13.1543 25.2458 10.8458 23.822 9.42189"/>
</mask>
<path d="M21.0591 6.65895L22.4733 5.24474L21.5402 4.31172L20.3154 4.80236L21.0591 6.65895ZM17.8624 7.42121L19.2766 8.8354L19.2771 8.83492L17.8624 7.42121ZM14.2628 11.0209L15.677 12.4351L15.677 12.4351L14.2628 11.0209ZM11.8194 11.0213L10.4051 12.4355L10.4056 12.4359L11.8194 11.0213ZM8.20615 7.40805L6.79127 8.8216L6.79193 8.82226L8.20615 7.40805ZM4.73174 6.64795L5.43669 4.77631L4.2296 4.32166L3.31752 5.23374L4.73174 6.64795ZM1.95779 9.42191L3.37201 10.8361L3.37201 10.8361L1.95779 9.42191ZM1.95779 14.5782L3.37201 13.164L3.37201 13.164L1.95779 14.5782ZM4.73162 17.352L3.31741 18.7662L4.22879 19.6776L5.43527 19.2242L4.73162 17.352ZM8.20615 16.592L6.79193 15.1778L6.79143 15.1783L8.20615 16.592ZM11.819 12.9792L10.4054 11.5644L10.4048 11.5649L11.819 12.9792ZM14.2628 12.9795L12.8479 14.393L12.8486 14.3937L14.2628 12.9795ZM17.8624 16.5789L19.2771 15.1652L19.2766 15.1646L17.8624 16.5789ZM21.0591 17.3411L20.3148 19.1975L21.5399 19.6887L22.4733 18.7553L21.0591 17.3411ZM23.822 14.5782L25.2362 15.9924L25.2363 15.9923L23.822 14.5782ZM25.2362 8.00769L22.4733 5.24474L19.6448 8.07316L22.4078 10.8361L25.2362 8.00769ZM20.3154 4.80236C20.4504 4.74827 20.6372 4.69852 20.8628 4.69852V8.69852C21.2275 8.69852 21.5461 8.61836 21.8027 8.51554L20.3154 4.80236ZM20.8628 4.69852H19.6066V8.69852H20.8628V4.69852ZM19.6066 4.69852C18.4266 4.69852 17.2819 5.17273 16.4477 6.00749L19.2771 8.83492C19.3608 8.75118 19.4876 8.69852 19.6066 8.69852V4.69852ZM16.4482 6.00702L12.8486 9.60674L15.677 12.4351L19.2766 8.8354L16.4482 6.00702ZM12.8486 9.60673C12.9029 9.55244 12.976 9.52634 13.0411 9.52634V13.5263C13.9906 13.5263 14.949 13.1632 15.677 12.4351L12.8486 9.60673ZM13.0411 9.52634C13.1057 9.52634 13.1789 9.5524 13.2331 9.60659L10.4056 12.4359C11.1333 13.1632 12.0912 13.5263 13.0411 13.5263V9.52634ZM13.2336 9.60705L9.62036 5.99384L6.79193 8.82226L10.4051 12.4355L13.2336 9.60705ZM9.62103 5.9945C8.78664 5.15933 7.64174 4.68537 6.46198 4.68537V8.68537C6.58116 8.68537 6.7078 8.73805 6.79127 8.8216L9.62103 5.9945ZM6.46198 4.68537H4.91731V8.68537H6.46198V4.68537ZM4.91731 4.68537C5.16896 4.68537 5.35462 4.7454 5.43669 4.77631L4.02678 8.51959C4.2251 8.59429 4.53389 8.68537 4.91731 8.68537V4.68537ZM3.31752 5.23374L0.543575 8.0077L3.37201 10.8361L6.14595 8.06216L3.31752 5.23374ZM0.543576 8.0077C-1.66138 10.2127 -1.66138 13.7874 0.543576 15.9924L3.37201 13.164C2.72915 12.5211 2.72915 11.479 3.37201 10.8361L0.543576 8.0077ZM0.543575 15.9924L3.31741 18.7662L6.14584 15.9378L3.37201 13.164L0.543575 15.9924ZM5.43527 19.2242C5.35443 19.2545 5.16901 19.3146 4.91731 19.3146V15.3146C4.53384 15.3146 4.22528 15.4057 4.02798 15.4799L5.43527 19.2242ZM4.91731 19.3146H6.46198V15.3146H4.91731V19.3146ZM6.46198 19.3146C7.64172 19.3146 8.78653 18.8407 9.62086 18.0057L6.79143 15.1783C6.70791 15.2619 6.58118 15.3146 6.46198 15.3146V19.3146ZM9.62036 18.0062L13.2332 14.3934L10.4048 11.5649L6.79193 15.1778L9.62036 18.0062ZM13.2327 14.3939C13.1444 14.4822 13.0645 14.4897 13.0411 14.4897C13.0176 14.4897 12.9369 14.4821 12.8479 14.393L15.6777 11.5659C14.2435 10.1303 11.8387 10.1322 10.4054 11.5644L13.2327 14.3939ZM12.8486 14.3937L16.4482 17.9931L19.2766 15.1646L15.677 11.5652L12.8486 14.3937ZM16.4477 17.9926C17.2819 18.8273 18.4266 19.3015 19.6066 19.3015V15.3015C19.4876 15.3015 19.3608 15.2489 19.2771 15.1652L16.4477 17.9926ZM19.6066 19.3015H20.8628V15.3015H19.6066V19.3015ZM20.8628 19.3015C20.6375 19.3015 20.4506 19.2519 20.3148 19.1975L21.8033 15.4848C21.5459 15.3816 21.2272 15.3015 20.8628 15.3015V19.3015ZM22.4733 18.7553L25.2362 15.9924L22.4078 13.164L19.6448 15.9269L22.4733 18.7553ZM25.2363 15.9923C27.4411 13.7874 27.4411 10.2127 25.2363 8.00773L22.4077 10.8361C23.0506 11.4789 23.0506 12.5211 22.4077 13.164L25.2363 15.9923Z" fill="white" mask="url(#path-3-inside-1_1_470)"/>
</svg>
